<svg width="321" height="650" viewBox="0 0 321 650" fill="none" xmlns="http://www.w3.org/2000/svg">
<path fill-rule="evenodd" clip-rule="evenodd" d="M45.5743 649.077C33.8682 649.077 22.3572 644.279 13.9926 635.915C4.96921 626.891 0 614.2 0 600.177V52.2221C0 36.2258 3.87835 23.6477 11.5278 14.8382C20.0767 4.99219 33.0987 0 50.2313 0H267.705C284.838 0 297.86 4.99219 306.408 14.8382C314.058 23.6477 317.937 36.2258 317.937 52.2221V600.177C317.937 614.2 312.967 626.891 303.944 635.915C295.579 644.279 284.068 649.077 272.362 649.077H45.5743Z" fill="#444444"/>
<g clip-path="url(#clip0)">
<path fill-rule="evenodd" clip-rule="evenodd" d="M50.2317 5.80948C18.3089 5.80948 6.33789 24.2631 6.33789 51.6942V599.65C6.33789 626.25 25.6232 642.211 45.575 642.211H272.362C292.314 642.211 311.599 626.25 311.599 599.65V51.6942C311.599 24.2631 299.628 5.80948 267.705 5.80948H50.2317Z" fill="#1B1B1B"/>
<rect x="15.3159" y="65.4886" width="287.305" height="509.121" fill="black"/>
</g>
<g clip-path="url(#clip1)">
<rect x="127.544" y="23.2379" width="62.8479" height="4.7532" rx="2.3766" fill="white" fill-opacity="0.5"/>
<rect x="127.544" y="23.2379" width="62.8479" height="4.7532" rx="2.3766" fill="#444444"/>
</g>
<defs>
<clipPath id="clip0">
<rect width="305.261" height="636.401" fill="white" transform="translate(6.33789 5.80948)"/>
</clipPath>
<clipPath id="clip1">
<rect width="141.804" height="36.4412" fill="white" transform="translate(48.5884 19.541)"/>
</clipPath>
</defs>
</svg>
