<svg width="64" height="64" viewBox="0 0 64 64" fill="none" xmlns="http://www.w3.org/2000/svg">
<path fill-rule="evenodd" clip-rule="evenodd" d="M-16 -16H80V80H-16V-16Z" fill="#1B1B1B"/>
<g filter="url(#filter0_i)">
<ellipse cx="42.5505" cy="42.5507" rx="8.11593" ry="8.11594" fill="#444444"/>
</g>
<g filter="url(#filter1_ii)">
<path d="M34.4346 42.5507C34.4346 42.5507 34.4346 42.5507 34.4346 42.5507C34.4346 47.033 38.0682 50.6666 42.5505 50.6666C47.0328 50.6666 50.6664 47.033 50.6664 42.5507C50.6664 38.0684 47.0328 34.4348 42.5505 34.4348L42.5505 42.5507L34.4346 42.5507Z" fill="#37DC78"/>
</g>
<path d="M43.6222 40.066L42.5505 37.5909L41.4788 40.0659C40.5178 40.481 39.8452 41.4373 39.8452 42.5507C39.8452 44.0448 41.0564 45.256 42.5505 45.256C44.0446 45.256 45.2558 44.0448 45.2558 42.5507C45.2558 41.4373 44.5833 40.481 43.6222 40.066Z" fill="#1B1B1B"/>
<g filter="url(#filter2_i)">
<ellipse cx="21.449" cy="42.5507" rx="8.11594" ry="8.11594" transform="rotate(90 21.449 42.5507)" fill="#444444"/>
</g>
<g filter="url(#filter3_ii)">
<path d="M21.449 34.4348C21.4489 34.4348 21.449 34.4348 21.449 34.4348C16.9666 34.4348 13.333 38.0684 13.333 42.5507C13.333 47.033 16.9666 50.6666 21.449 50.6666C25.9313 50.6666 29.5649 47.033 29.5649 42.5507C29.5649 42.5507 29.5649 42.5507 29.5649 42.5507L21.449 42.5507L21.449 34.4348Z" fill="#37DC78"/>
</g>
<path d="M23.9337 43.6224L26.4087 42.5507L23.9337 41.479C23.5186 40.518 22.5623 39.8454 21.449 39.8454C19.9549 39.8454 18.7437 41.0566 18.7437 42.5507C18.7437 44.0448 19.9549 45.256 21.449 45.256C22.5623 45.256 23.5186 44.5834 23.9337 43.6224Z" fill="#1B1B1B"/>
<g filter="url(#filter4_i)">
<ellipse cx="42.5505" cy="21.4492" rx="8.11594" ry="8.11593" transform="rotate(-90 42.5505 21.4492)" fill="#444444"/>
</g>
<g filter="url(#filter5_ii)">
<path d="M42.5505 29.5652C47.0328 29.5652 50.6664 25.9316 50.6664 21.4493C50.6664 16.9669 47.0328 13.3333 42.5505 13.3333C38.0682 13.3333 34.4346 16.9669 34.4346 21.4493C34.4346 21.4493 34.4346 21.4493 34.4346 21.4493L42.5505 21.4493L42.5505 29.5652Z" fill="#FFD813"/>
</g>
<path d="M40.0658 20.3776L37.5908 21.4493L40.0658 22.521C40.4809 23.482 41.4372 24.1546 42.5506 24.1546C44.0447 24.1546 45.2559 22.9434 45.2559 21.4493C45.2559 19.9552 44.0447 18.744 42.5506 18.744C41.4372 18.744 40.4809 19.4166 40.0658 20.3776Z" fill="#1B1B1B"/>
<g filter="url(#filter6_i)">
<ellipse cx="21.449" cy="21.4492" rx="8.11594" ry="8.11594" transform="rotate(-180 21.449 21.4492)" fill="#444444"/>
</g>
<g filter="url(#filter7_ii)">
<path d="M29.5649 21.4493C29.5649 21.4493 29.5649 21.4493 29.5649 21.4493C29.5649 16.9669 25.9313 13.3333 21.449 13.3333C16.9666 13.3333 13.333 16.9669 13.333 21.4493C13.333 25.9316 16.9666 29.5652 21.449 29.5652C21.449 29.5652 21.4489 29.5652 21.449 29.5652L21.449 21.4493L29.5649 21.4493Z" fill="#37DC78"/>
</g>
<path d="M20.3773 23.9341L21.449 26.4091L22.5207 23.9341C23.4817 23.519 24.1543 22.5627 24.1543 21.4493C24.1543 19.9552 22.9431 18.744 21.449 18.744C19.9549 18.744 18.7437 19.9552 18.7437 21.4493C18.7437 22.5627 19.4162 23.519 20.3773 23.9341Z" fill="#1B1B1B"/>
<path fill-rule="evenodd" clip-rule="evenodd" d="M-16 -16H80V80H-16V-16Z" fill="url(#paint0_radial)"/>
<defs>
<filter id="filter0_i" x="34.4346" y="34.4348" width="16.2319" height="16.2319" filterUnits="userSpaceOnUse" color-interpolation-filters="sRGB">
<feFlood flood-opacity="0" result="BackgroundImageFix"/>
<feBlend mode="normal" in="SourceGraphic" in2="BackgroundImageFix" result="shape"/>
<feColorMatrix in="SourceAlpha" type="matrix" values="0 0 0 0 0 0 0 0 0 0 0 0 0 0 0 0 0 0 127 0" result="hardAlpha"/>
<feOffset dy="0.3125"/>
<feComposite in2="hardAlpha" operator="arithmetic" k2="-1" k3="1"/>
<feColorMatrix type="matrix" values="0 0 0 0 1 0 0 0 0 1 0 0 0 0 1 0 0 0 0.1 0"/>
<feBlend mode="normal" in2="shape" result="effect1_innerShadow"/>
</filter>
<filter id="filter1_ii" x="34.4346" y="34.4348" width="16.2319" height="16.2319" filterUnits="userSpaceOnUse" color-interpolation-filters="sRGB">
<feFlood flood-opacity="0" result="BackgroundImageFix"/>
<feBlend mode="normal" in="SourceGraphic" in2="BackgroundImageFix" result="shape"/>
<feColorMatrix in="SourceAlpha" type="matrix" values="0 0 0 0 0 0 0 0 0 0 0 0 0 0 0 0 0 0 127 0" result="hardAlpha"/>
<feOffset dy="0.3125"/>
<feComposite in2="hardAlpha" operator="arithmetic" k2="-1" k3="1"/>
<feColorMatrix type="matrix" values="0 0 0 0 1 0 0 0 0 1 0 0 0 0 1 0 0 0 0.1 0"/>
<feBlend mode="normal" in2="shape" result="effect1_innerShadow"/>
<feColorMatrix in="SourceAlpha" type="matrix" values="0 0 0 0 0 0 0 0 0 0 0 0 0 0 0 0 0 0 127 0" result="hardAlpha"/>
<feOffset dy="-0.3125"/>
<feComposite in2="hardAlpha" operator="arithmetic" k2="-1" k3="1"/>
<feColorMatrix type="matrix" values="0 0 0 0 0.105882 0 0 0 0 0.105882 0 0 0 0 0.105882 0 0 0 0.1 0"/>
<feBlend mode="normal" in2="effect1_innerShadow" result="effect2_innerShadow"/>
</filter>
<filter id="filter2_i" x="13.333" y="34.4348" width="16.2319" height="16.2319" filterUnits="userSpaceOnUse" color-interpolation-filters="sRGB">
<feFlood flood-opacity="0" result="BackgroundImageFix"/>
<feBlend mode="normal" in="SourceGraphic" in2="BackgroundImageFix" result="shape"/>
<feColorMatrix in="SourceAlpha" type="matrix" values="0 0 0 0 0 0 0 0 0 0 0 0 0 0 0 0 0 0 127 0" result="hardAlpha"/>
<feOffset dy="0.3125"/>
<feComposite in2="hardAlpha" operator="arithmetic" k2="-1" k3="1"/>
<feColorMatrix type="matrix" values="0 0 0 0 1 0 0 0 0 1 0 0 0 0 1 0 0 0 0.1 0"/>
<feBlend mode="normal" in2="shape" result="effect1_innerShadow"/>
</filter>
<filter id="filter3_ii" x="13.333" y="34.4348" width="16.2319" height="16.2319" filterUnits="userSpaceOnUse" color-interpolation-filters="sRGB">
<feFlood flood-opacity="0" result="BackgroundImageFix"/>
<feBlend mode="normal" in="SourceGraphic" in2="BackgroundImageFix" result="shape"/>
<feColorMatrix in="SourceAlpha" type="matrix" values="0 0 0 0 0 0 0 0 0 0 0 0 0 0 0 0 0 0 127 0" result="hardAlpha"/>
<feOffset dy="0.3125"/>
<feComposite in2="hardAlpha" operator="arithmetic" k2="-1" k3="1"/>
<feColorMatrix type="matrix" values="0 0 0 0 1 0 0 0 0 1 0 0 0 0 1 0 0 0 0.1 0"/>
<feBlend mode="normal" in2="shape" result="effect1_innerShadow"/>
<feColorMatrix in="SourceAlpha" type="matrix" values="0 0 0 0 0 0 0 0 0 0 0 0 0 0 0 0 0 0 127 0" result="hardAlpha"/>
<feOffset dy="-0.3125"/>
<feComposite in2="hardAlpha" operator="arithmetic" k2="-1" k3="1"/>
<feColorMatrix type="matrix" values="0 0 0 0 0.105882 0 0 0 0 0.105882 0 0 0 0 0.105882 0 0 0 0.1 0"/>
<feBlend mode="normal" in2="effect1_innerShadow" result="effect2_innerShadow"/>
</filter>
<filter id="filter4_i" x="34.4346" y="13.3333" width="16.2319" height="16.2319" filterUnits="userSpaceOnUse" color-interpolation-filters="sRGB">
<feFlood flood-opacity="0" result="BackgroundImageFix"/>
<feBlend mode="normal" in="SourceGraphic" in2="BackgroundImageFix" result="shape"/>
<feColorMatrix in="SourceAlpha" type="matrix" values="0 0 0 0 0 0 0 0 0 0 0 0 0 0 0 0 0 0 127 0" result="hardAlpha"/>
<feOffset dy="-0.3125"/>
<feComposite in2="hardAlpha" operator="arithmetic" k2="-1" k3="1"/>
<feColorMatrix type="matrix" values="0 0 0 0 0.105882 0 0 0 0 0.105882 0 0 0 0 0.105882 0 0 0 0.1 0"/>
<feBlend mode="normal" in2="shape" result="effect1_innerShadow"/>
</filter>
<filter id="filter5_ii" x="34.4346" y="13.3333" width="16.2319" height="16.2319" filterUnits="userSpaceOnUse" color-interpolation-filters="sRGB">
<feFlood flood-opacity="0" result="BackgroundImageFix"/>
<feBlend mode="normal" in="SourceGraphic" in2="BackgroundImageFix" result="shape"/>
<feColorMatrix in="SourceAlpha" type="matrix" values="0 0 0 0 0 0 0 0 0 0 0 0 0 0 0 0 0 0 127 0" result="hardAlpha"/>
<feOffset dy="0.3125"/>
<feComposite in2="hardAlpha" operator="arithmetic" k2="-1" k3="1"/>
<feColorMatrix type="matrix" values="0 0 0 0 1 0 0 0 0 1 0 0 0 0 1 0 0 0 0.1 0"/>
<feBlend mode="normal" in2="shape" result="effect1_innerShadow"/>
<feColorMatrix in="SourceAlpha" type="matrix" values="0 0 0 0 0 0 0 0 0 0 0 0 0 0 0 0 0 0 127 0" result="hardAlpha"/>
<feOffset dy="-0.3125"/>
<feComposite in2="hardAlpha" operator="arithmetic" k2="-1" k3="1"/>
<feColorMatrix type="matrix" values="0 0 0 0 0.105882 0 0 0 0 0.105882 0 0 0 0 0.105882 0 0 0 0.1 0"/>
<feBlend mode="normal" in2="effect1_innerShadow" result="effect2_innerShadow"/>
</filter>
<filter id="filter6_i" x="13.333" y="13.3333" width="16.2319" height="16.2319" filterUnits="userSpaceOnUse" color-interpolation-filters="sRGB">
<feFlood flood-opacity="0" result="BackgroundImageFix"/>
<feBlend mode="normal" in="SourceGraphic" in2="BackgroundImageFix" result="shape"/>
<feColorMatrix in="SourceAlpha" type="matrix" values="0 0 0 0 0 0 0 0 0 0 0 0 0 0 0 0 0 0 127 0" result="hardAlpha"/>
<feOffset dy="-0.3125"/>
<feComposite in2="hardAlpha" operator="arithmetic" k2="-1" k3="1"/>
<feColorMatrix type="matrix" values="0 0 0 0 0.105882 0 0 0 0 0.105882 0 0 0 0 0.105882 0 0 0 0.1 0"/>
<feBlend mode="normal" in2="shape" result="effect1_innerShadow"/>
</filter>
<filter id="filter7_ii" x="13.333" y="13.3333" width="16.2319" height="16.2319" filterUnits="userSpaceOnUse" color-interpolation-filters="sRGB">
<feFlood flood-opacity="0" result="BackgroundImageFix"/>
<feBlend mode="normal" in="SourceGraphic" in2="BackgroundImageFix" result="shape"/>
<feColorMatrix in="SourceAlpha" type="matrix" values="0 0 0 0 0 0 0 0 0 0 0 0 0 0 0 0 0 0 127 0" result="hardAlpha"/>
<feOffset dy="0.3125"/>
<feComposite in2="hardAlpha" operator="arithmetic" k2="-1" k3="1"/>
<feColorMatrix type="matrix" values="0 0 0 0 1 0 0 0 0 1 0 0 0 0 1 0 0 0 0.1 0"/>
<feBlend mode="normal" in2="shape" result="effect1_innerShadow"/>
<feColorMatrix in="SourceAlpha" type="matrix" values="0 0 0 0 0 0 0 0 0 0 0 0 0 0 0 0 0 0 127 0" result="hardAlpha"/>
<feOffset dy="-0.3125"/>
<feComposite in2="hardAlpha" operator="arithmetic" k2="-1" k3="1"/>
<feColorMatrix type="matrix" values="0 0 0 0 0.105882 0 0 0 0 0.105882 0 0 0 0 0.105882 0 0 0 0.1 0"/>
<feBlend mode="normal" in2="effect1_innerShadow" result="effect2_innerShadow"/>
</filter>
<radialGradient id="paint0_radial" cx="0" cy="0" r="1" gradientUnits="userSpaceOnUse" gradientTransform="translate(10.4363 10.3862) rotate(45.036) scale(63.2431)">
<stop stop-color="white" stop-opacity="0.2"/>
<stop offset="1" stop-color="white" stop-opacity="0.01"/>
</radialGradient>
</defs>
</svg>
